<?xml version="1.0" encoding="UTF-8"?><svg id="Layer_1" xmlns="http://www.w3.org/2000/svg" viewBox="0 0 415.7461 387.4019"><path d="M250.3402,125.5694c7.7739,7.6227,6.7159,21.6798-2.7361,27.4081-3.2624,1.9772-6.8346,2.9388-10.6917,2.94l-16.2525.005-.0007-35.3952,17.2285.0871c4.7095.0238,9.0055,1.8585,12.4525,4.9551ZM246.6832,145.5586c2.7629-4.2437,2.8522-9.4444.5193-13.7735-2.1498-3.4374-5.6453-5.5582-9.7525-5.5934l-10.2127-.0874-.011,24.2894,10.5017-.1273c3.5729-.0433,6.7191-1.8506,8.9552-4.7078Z" fill="#949599"/><path d="M292.6403,155.8387l-7.0129.1103-7.2201-10.2962-9.3838-.0138.0064,10.3073-6.5926.0194-.0244-35.4466,15.1991.028c2.8643.0053,5.577.5687,8.0768,1.7911,4.2559,2.075,6.4294,6.1695,6.4298,10.8449.0004,4.9664-2.5856,9.3071-7.5454,11.1283l8.067,11.5272ZM283.9779,137.7245c2.0166-2.7986,2.0597-6.5598-.0443-9.1793-1.5686-1.6393-3.6853-2.3623-5.9396-2.384l-8.978-.0864.0067,14.1346,8.8663-.0332c2.2955-.0086,4.361-.8225,6.0888-2.4516Z" fill="#949599"/><path d="M134.726,227.4112c4.8414-1.3291,9.274-2.7153,14.1596-3.1933.5489-.0537,1.0265-.0644,1.3759.4553-2.8646,2.2133-6.0143,3.7982-9.2525,5.5409-4.614,2.483-8.6378,5.4879-12.7404,9.3733l-23.5248-49.1432c-.1082-.226-.9866.247-.8447.5079l-16.6019,34.7473c8.275-2.8087,16.1028-5.4286,24.6201-6.9338-1.5682,1.1091-3.3636,1.4211-5.1629,2.1129-11.1892,4.0976-23.3524,12.8371-28.8097,23.5004l-3.3764,6.5972c-2.5794,5.0399-4.4503,10.2243-11.3094,9.7444l41.8891-91.0501,12.0532,23.5789,9.8521-1.0923,1.4334,6.2449c.2455,1.0697.5331,2.0701,1.3943,2.6556.7926.539,1.8531.8504,2.93.4863l16.5129-5.5838c.9052-.3061,1.8418-.3387,2.8593.0521-.8423,1.1927-1.9957,1.7264-3.2079,2.3123-9.618,4.6484-19.8269,9.9868-26.6681,18.1549-.1738.2075-.3256.5488-.2677.698.0793.2043.4915.5444.8439.5075l9.1517-.9562,2.691,10.6827Z" fill="#c5a154"/><path d="M126.6267,175.1998l21.9224-7.2487c.3419-.1131,1.0482.035,1.1868.2305.1702.2403-.0758.8495-.5156,1.1258l-30.574,19.2017-12.2303-24.1452c-.3003-.5928-.8586-.8411-1.3908-.8395-.6595.0021-1.0591.3787-1.4145,1.1518l-42.8459,93.1885c-.8714,1.8953-2.1678,2.921-4.3898,2.6397-2.1613-.2735-4.3773-1.3112-5.9166-3.025l52.5494-109.7762c.4328-.9041.5292-1.5546,1.44-2.3039,1.1769,1.5858,1.9161,3.3312,2.7646,5.1192l3.9073,8.233c.3495.7365,1.0243,1.1715,1.8352,1.2648l6.9574.8002c1.2455.1433,2.6562.9972,2.8514,2.3177l1.5022,10.1622c.1332.9013,1.0214,2.3463,2.3608,1.9034Z" fill="#949599"/><path d="M164.8981,199.7176c.3804-.3307.3137-.759.2455-.9676-.1237-.3785-.5084-.5918-1.025-.5354l-7.1745.7822c-.5681.0619-.9617-.265-1.0264-.8198l-1.3045-11.1707c-.5549-4.7516,2.6869-6.3631,6.0289-9.1255,1.1702-1.4447,1.3104-3.6767,2.1594-5.4825l-8.5186.7547c-.8504-4.1755-2.0374-8.3814,1.7458-10.1309l3.7914-.9131c3.5307-.8503,6.5942-2.5206,9.6066-4.5157,5.8528-13.0757,9.5994-26.7184,10.5719-41.01.7338-10.7842-2.948-23.5521-11.5738-30.3363-7.2765-5.723-17.9019-6.5205-24.9297.0493-10.0167,9.364-21.3521,16.8592-33.8498,22.5495-2.8446,1.2952-5.651,2.096-8.8342,1.4523l4.4928-1.8993c10.5348-7.7737,19.7715-16.8369,28.3098-26.721,2.3748-2.7492,4.6401-5.2818,7.4645-7.5281,4.4131-3.5096,9.8939-5.1531,15.5657-5.434,11.1366-.5516,21.4216,4.2192,28.739,12.5023,10.892,12.3293,12.9305,29.2677,11.0803,45.3381-1.6994,14.7602-6.4731,28.6387-13.1669,41.8092l-7.5157,16.3485c-4.6263,10.0635-7.0605,20.6558-8.4952,31.6668-1.3825,10.6103-3.8216,20.7921-7.7185,30.7108-1.1666,2.9693-2.5089,5.6157-4.252,8.2113-2.7511,4.0967-7.3379,6.432-12.2444,5.8107-2.6766-.3389-4.8613-1.7524-6.288-3.9893l-6.6803-13.0338,7.75-1.0683,7.3846,15.0324c.8636,1.758,2.9218,2.1861,4.4897,1.0717,1.8932-1.3457,2.5988-3.4174,2.9325-5.6947l2.4713-16.8656c.2493-1.7013,1.2935-3.081,2.5581-4.071l4.8041-3.7609c1.5094-1.1817,2.284-3.0993,1.9136-5.0156l-8.4281.8513-.4031-13.5913c-.0611-2.0608.6451-3.7146,2.1609-5.0326l7.1623-6.2279Z" fill="#949599"/><path d="M48.7957,256.9778c-5.5874-4.1676-9.6568-9.8958-12.1096-16.5647-1.8217-4.9943-2.7259-9.9934-3.2761-15.2997l-.7001-14.9775-.6527-14.9456c-1.5395-12.5417-9.2608-24.2433-15.7718-34.8356l-6.2338-10.1414C4.5327,140.1144.8265,129.2763.067,117.7034c-.3196-4.8695.5367-9.4996,1.8815-14.1019,2.5306-8.6599,8.2284-15.7376,15.9494-20.2964,7.1354-4.213,15.4268-5.196,23.3247-2.7099,2.6794.8434,4.9725,2.0376,7.4556,3.3385l14.9027,7.8073c7.6752,3.5849,21.5402,8.7177,28.8618,5.2197l4.8055-2.2959c-1.4814,2.21-3.3801,3.823-5.5973,5.0673-12.8183,7.1937-34.4512.8148-47.5713-5.1226-7.7178-3.4926-15.9487-2.1333-21.6434,4.313-7.8378,8.8722-6.1995,20.8647-2.2683,31.4697,2.0491,5.5278,4.8498,10.4085,7.7486,15.5303l9.4025,16.613c3.6235,6.4023,6.1091,13.1124,7.9064,20.2735,1.8253,7.2725,2.532,14.5264,1.9112,21.9847l-2.0119,10.1c-1.054,5.2913-2.1261,10.3898-2.4322,15.7797-.5323,9.3745.896,18.2257,6.3017,25.9674.0742.1062.1429.1809.1671.1963.5567.0427.2927.6554-.0906.423l-.2749-.2822Z" fill="#949599"/><path d="M50.6371,234.2009c-.1986-.7257-.2291-1.4816-.1666-2.1791l.5645-6.2965.5852-5.2697c2.9777-26.8149,14.1048-59.4932,26.3802-83.6875l2.714-5.3491,5.9693-11.2082c4.4605-8.3753,9.3867-16.2358,14.4709-24.3023l18.4659-27.6063c-2.1303-1.1844-3.3545-3.5678-2.4606-5.8448.6197-1.5785,1.8039-2.809,3.1289-3.1863,1.8041-.5137,3.4734-.1195,4.9266,1.1986l7.0138-10.0089c-2.9069-5.4497-1.9991-11.0346,1.5938-15.7035,8.7664-11.3919,17.989-22.229,28.2911-32.2458,4.9331-4.7965,16.1249-2.6407,20.0283,5.7603,3.4088,7.3365-.3289,12.4956-5.0169,18.0921l-22.3884,26.7279c-3.9122,4.6705-10.2627,5.5246-15.7054,3.6439l-6.3942,8.449c-.348.4598.6006.974.8818,1.1764,2.4161,1.7392,2.3228,5.0819.4201,7.1443-1.9989,2.1668-5.2287,1.8708-7.4584-.3929-36.1315,46.6217-67.7813,97.625-75.0708,156.9013l-.7731,4.1868Z" fill="#c5a154"/><polygon points="227.5207 349.9114 213.1649 349.9796 213.1613 285.4614 187.7461 285.4315 187.7219 273.4205 252.7301 273.4214 252.7389 285.4623 227.4987 285.4237 227.5207 349.9114" fill="#c5a154"/><path d="M290.0793,258.5422l-.163-56.8073-5.1519,4.7928-21.2706,19.6142-4.4299,4.1929-4.9863,4.5554-3.8016-3.5747-31.8558-28.8273-.0283,56.0421-17.1686.0082.0046-96.1935,53.2187,47.2063,42.3566-38.0204,3.4635-3.2171,6.178-5.4669c1.1353-1.0046.6708,1.0875.6336,3.8216l-.1782,13.0671.1588,62.8468.159,15.9281-17.1385.0315Z" fill="#c5a154"/><polygon points="385.0584 322.8116 385.0059 349.9554 370.8316 349.9497 370.7961 323.2063 340.7003 273.4413 355.9596 273.4548 378.3258 310.6317 400.9173 273.4544 414.9683 273.4481 385.0584 322.8116" fill="#c5a154"/><path d="M393.5052,226.7243l22.2409,31.745-19.3287.0631-19.6615-28.198-25.6257.0114-.006,28.1637-17.9993.0187-.003-96.8235,42.2731.1362c6.3664.0205,12.3039,1.3115,18.1045,3.5145,16.5911,6.7436,22.9961,21.7047,19.7857,38.9723-1.295,5.6392-3.84,10.7314-7.8916,14.809-3.3824,3.3416-7.1478,5.8018-11.8885,7.5875ZM395.3306,190.6723c-1.2364-5.2473-4.82-9.1489-9.7704-11.2703-3.6244-1.5645-7.4317-2.3142-11.4772-2.3358l-23.0317-.1228.0254,38.6491,23.2725-.1058c4.5014-.0205,8.752-1.0539,12.67-3.0465,8.0353-4.2889,10.3254-13.2202,8.3114-21.7678Z" fill="#c5a154"/><polygon points="331.4294 349.911 317.2132 349.9684 317.2257 317.2269 277.6679 317.2149 277.6615 349.954 263.4802 349.9513 263.4332 273.4558 277.6663 273.4501 277.6548 305.0342 317.2211 305.0355 317.2131 273.4473 331.4246 273.4531 331.4294 349.911" fill="#c5a154"/><path d="M70.6751,384.5183c-2.0008,1.5221-4.2205,2.5088-6.6804,2.5314l-10.4482.0959-.0037-21.0012,11.3797.2472c5.4947.6029,9.3666,4.9351,9.1444,10.3887.0563,2.9926-1.1087,5.7051-3.3918,7.7381ZM70.1908,376.8539c.1104-3.797-2.3522-6.7131-6.0881-7.2204l-6.6561-.1029-.0106,14.262,6.1693-.0469c3.7983-.0289,6.4741-3.0624,6.5855-6.8918Z" fill="#949599"/><path d="M333.1443,379.6336l.0734-13.377,3.8435-.0092-.009,20.861-3.1706.0365-11.4749-14.0936-.0511,14.0697-3.8861.0207.0511-20.8966,3.1939-.0269,11.0441,13.5404.3856-.1251ZM333.2397,379.8668l-.3291.1432c.0966.2476.4256.1387.3291-.1432Z" fill="#949599"/><path d="M133.1083,386.9739l-3.1281.2087-11.5522-14.1193-.0585,13.971-3.8231-.014.009-20.7436c1.1546-.143,2.1466-.1289,3.2908.0404l11.3657,13.9352.0328-13.9985,3.859.016.0046,20.7041Z" fill="#949599"/><polygon points="100.3355 378.0881 90.3106 378.0474 90.2437 383.8127 102.0301 383.8278 102.0042 387.1269 86.3911 387.13 86.3693 366.1829 101.671 366.1564 101.6847 369.4764 90.2995 369.4708 90.2583 374.9068 100.3354 374.8937 100.3355 378.0881" fill="#949599"/><path d="M185.5944,382.3718l-10.4348-.124-2.1395,4.8736-3.9807-.1021,9.3534-20.7924,3.8416-.0145,9.3847,20.8058-4.0267.0984-1.998-4.7447ZM184.1525,379.1098l-3.8544-9.0337-3.869,9.0898,7.7234-.0562Z" fill="#949599"/><path d="M248.2219,380.2467c1.2374,2.3104,3.4138,3.3981,5.5626,3.679,2.5403.3321,4.8954-.5422,6.5513-2.4042l2.579,2.3483c-2.2957,2.7849-5.806,3.7311-9.3956,3.485-5.4777-.3756-9.6434-4.3589-10.0762-9.8175-.4449-5.612,3.23-10.4318,8.7864-11.4266,3.9251-.7027,7.9123.2344,10.6847,3.2448l-2.5832,2.4036c-3.0348-3.3486-8.6021-3.3246-11.4791.3429-1.7957,2.2891-2.0162,5.5562-.6299,8.1447Z" fill="#949599"/><path d="M374.6904,383.083c3.2347,1.6076,6.8083,1.088,9.2363-1.5321l2.5422,2.4219c-2.5706,2.8857-6.2856,3.7818-10.0057,3.3102-5.5306-.7012-9.3803-4.9534-9.4371-10.504-.0582-5.6898,4.0029-10.1964,9.6947-10.7928,3.6314-.3805,7.2282.5428,9.7393,3.3514l-2.4701,2.4444c-2.7877-3.0045-7.3955-3.3215-10.52-.7496-1.9265,1.5858-2.6581,3.9024-2.4845,6.3335.1586,2.2209,1.3857,4.5646,3.7049,5.7172Z" fill="#949599"/><polygon points="154.9912 386.9638 151.1237 387.1429 151.12 369.525 144.1992 369.4809 144.215 366.2286 161.8809 366.2038 161.8935 369.5127 154.9728 369.5324 154.9912 386.9638" fill="#949599"/><polygon points="217.2198 383.8061 217.2629 387.1216 202.48 387.1243 202.4858 366.2191 206.36 366.1465 206.3385 383.8161 217.2198 383.8061" fill="#949599"/><polygon points="289.6098 383.8309 289.5383 387.126 274.7874 387.1213 274.7916 366.1631 278.6531 366.2719 278.6459 383.7889 289.6098 383.8309" fill="#949599"/><rect x="350.8152" y="366.1977" width="3.9525" height="20.9796" transform="translate(-1.0297 .9671) rotate(-.1568)" fill="#949599"/><rect x="292.3203" y="374.7028" width="20.9226" height="3.8883" transform="translate(-73.9307 679.3472) rotate(-89.9876)" fill="#949599"/><path d="M104.3323,308.6313l.0398,12.0166-36.9131-.0099.0044,29.3175-14.2171-.0028.0083-53.678c.0508-12.3326,9.5851-22.0684,21.729-22.8688l40.2792.0156.0049,11.9316-39.0427.0387c-2.0828.3861-3.664.8457-5.1502,2.2491-2.3696,1.7862-3.6106,4.7161-3.6147,7.7521l-.0178,13.2352,36.89.0032Z" fill="#c5a154"/><path d="M143.4291,321.3613c3.6526-.7344,7.1125-1.1724,10.7762-.7678-12.2114,2.1972-21.1425,12.2381-27.2328,22.6309l-3.5977,6.7263-14.6326-.029,41.3841-76.5718,41.5657,76.4981-14.8639.1235-26.5962-51.6373-13.0818,25.3429,6.279-2.3157Z" fill="#c5a154"/></svg>